<?xml version="1.0" standalone="no"?>
<!DOCTYPE svg PUBLIC "-//W3C//DTD SVG 20010904//EN"
 "http://www.w3.org/TR/2001/REC-SVG-20010904/DTD/svg10.dtd">
<svg version="1.0" xmlns="http://www.w3.org/2000/svg"
 width="128.000000pt" height="128.000000pt" viewBox="0 0 128.000000 128.000000"
 preserveAspectRatio="xMidYMid meet">
<metadata>
Created by potrace 1.14, written by Peter Selinger 2001-2017
</metadata>
<g transform="translate(0.000000,128.000000) scale(0.100000,-0.100000)"
fill="#000000" stroke="none">
<path d="M641 1230 c-16 -10 -152 -260 -146 -269 3 -5 25 -8 50 -7 25 1 45 -2
45 -6 0 -28 -26 -48 -77 -63 -32 -9 -84 -32 -115 -50 l-57 -34 -15 52 c-42
143 -167 276 -283 301 -26 6 -32 4 -37 -12 -10 -29 2 -157 19 -215 23 -77 82
-177 134 -225 l47 -43 -35 -72 c-30 -61 -34 -81 -35 -146 0 -99 31 -169 108
-245 199 -198 595 -198 793 0 113 112 138 249 73 392 l-33 73 53 52 c108 105
161 273 141 441 -1 12 -73 -3 -92 -20 -8 -8 -21 -14 -27 -14 -6 0 -38 -26 -70
-58 -59 -57 -113 -147 -127 -209 -3 -18 -10 -35 -15 -38 -5 -3 -37 10 -72 28
-35 18 -74 37 -88 41 -24 6 -23 9 43 70 74 69 75 79 1 78 -24 -1 -44 1 -44 5
0 3 32 43 70 89 70 83 81 103 58 105 -45 4 -260 4 -267 -1z"/>
</g>
</svg>
